<svg xmlns="http://www.w3.org/2000/svg" viewBox="0 0 512 512" width="100%" height="100%">
  <defs>
    <!-- Background Gradient matching the sidebar -->
    <linearGradient id="sidebarGrad" x1="0%" y1="0%" x2="0%" y2="100%">
      <stop offset="0%" stop-color="#312E81" />
      <stop offset="50%" stop-color="#3730A3" />
      <stop offset="100%" stop-color="#581C87" />
    </linearGradient>
  </defs>
  
  <!-- Outer Rounded Square (App Icon Base) -->
  <rect width="512" height="512" rx="128" fill="url(#sidebarGrad)" />
  
  <!-- Glassmorphic Icon Container representing the sidebar icon wrapper -->
  <rect x="96" y="96" width="320" height="320" rx="80" fill="#FFFFFF" fill-opacity="0.15" />
  
  <!-- White File Invoice Icon centered inside the container -->
  <g transform="translate(188.5, 166) scale(0.351)">
    <path fill="#FFFFFF" d="M288 256H96v64h192v-64zm89-151L279.1 7c-4.5-4.5-10.6-7-17-7H256v128h128v-6.1c0-6.3-2.5-12.4-7-16.9zm-153 31V0H24C10.7 0 0 10.7 0 24v464c0 13.3 10.7 24 24 24h336c13.3 0 24-10.7 24-24V160H248c-13.2 0-24-10.8-24-24zM64 72c0-4.42 3.58-8 8-8h80c4.42 0 8 3.58 8 8v16c0 4.42-3.58 8-8 8H72c-4.42 0-8-3.58-8-8V72zm0 64c0-4.42 3.58-8 8-8h80c4.42 0 8 3.58 8 8v16c0 4.42-3.58 8-8 8H72c-4.42 0-8-3.58-8-8v-16zm256 304c0 4.42-3.58 8-8 8h-80c-4.42 0-8-3.58-8-8v-16c0-4.42 3.58-8 8-8h80c4.42 0 8 3.58 8 8v16zm0-200v96c0 8.84-7.16 16-16 16H80c-8.84 0-16-7.16-16-16v-96c0-8.84 7.16-16 16-16h224c8.84 0 16 7.16 16 16z" />
  </g>
</svg>